<?xml version="1.0" standalone="no"?>
<!DOCTYPE svg PUBLIC "-//W3C//DTD SVG 20010904//EN"
 "http://www.w3.org/TR/2001/REC-SVG-20010904/DTD/svg10.dtd">
<svg version="1.0" xmlns="http://www.w3.org/2000/svg"
 width="1392.000000pt" height="1392.000000pt" viewBox="0 0 1392.000000 1392.000000"
 preserveAspectRatio="xMidYMid meet">
<metadata>
Created by potrace 1.14, written by Peter Selinger 2001-2017
</metadata>
<g transform="translate(0.000000,1392.000000) scale(0.100000,-0.100000)"
fill="#000000" stroke="none">
<path d="M6737 12704 c-4 -4 -28 -9 -54 -12 -26 -2 -64 -13 -85 -24 -40 -21
-118 -104 -118 -125 0 -7 -4 -13 -10 -13 -5 0 -10 -4 -10 -9 0 -5 -13 -38 -29
-73 -16 -35 -32 -74 -36 -87 -4 -13 -14 -40 -23 -60 -9 -20 -17 -44 -19 -54
-2 -10 -8 -28 -15 -40 -7 -12 -13 -26 -14 -32 -2 -5 -5 -21 -8 -34 -3 -12 -10
-29 -16 -36 -5 -6 -11 -24 -12 -39 -1 -14 -5 -26 -9 -26 -4 0 -10 -16 -13 -35
-4 -19 -11 -35 -16 -35 -6 0 -9 -3 -8 -7 5 -19 -14 -103 -23 -103 -6 0 -8 -4
-5 -9 3 -5 -2 -31 -11 -57 -9 -27 -18 -56 -21 -64 -3 -8 -4 -19 -3 -23 0 -4
-6 -21 -15 -38 -8 -17 -13 -33 -10 -37 3 -3 2 -10 -3 -16 -4 -6 -14 -32 -21
-58 l-12 -47 -112 5 c-61 3 -122 7 -136 10 -14 2 -180 7 -370 9 l-345 5 -105
-35 c-57 -20 -107 -41 -111 -46 -3 -6 -8 -10 -10 -9 -8 4 -79 -34 -79 -42 0
-4 -4 -8 -10 -8 -27 0 -206 -161 -192 -174 3 -3 -2 -6 -11 -6 -8 0 -19 -9 -22
-20 -3 -11 -11 -20 -16 -20 -5 0 -13 -8 -17 -17 -12 -31 -66 -118 -74 -121 -5
-2 -6 -7 -3 -12 3 -4 -2 -13 -10 -20 -8 -7 -15 -17 -15 -22 0 -5 -11 -34 -25
-63 -13 -30 -27 -66 -31 -80 -3 -14 -10 -25 -16 -25 -5 0 -7 -4 -4 -8 3 -5 -2
-33 -10 -63 -19 -69 -22 -83 -29 -144 -3 -27 -10 -63 -15 -80 -5 -16 -9 -52
-8 -80 1 -102 -1 -113 -24 -120 -19 -6 -128 -59 -253 -123 -116 -60 -292 -190
-405 -299 -92 -90 -82 -87 -138 -35 -51 47 -198 125 -285 152 -255 78 -526 41
-675 -94 -66 -59 -155 -203 -168 -271 -2 -11 -6 -31 -9 -45 -26 -112 -26 -224
0 -362 7 -37 65 -200 76 -214 5 -6 7 -13 4 -16 -3 -3 1 -11 10 -18 8 -7 15
-18 15 -24 0 -17 74 -131 128 -196 48 -58 140 -149 180 -179 l24 -18 -63 -46
c-165 -119 -331 -295 -448 -477 -33 -52 -66 -101 -71 -107 -6 -7 -8 -13 -4
-13 4 0 0 -8 -9 -17 -8 -10 -19 -30 -22 -45 -4 -16 -11 -28 -16 -28 -5 0 -9
-4 -9 -9 0 -5 -12 -35 -27 -67 -15 -33 -28 -63 -29 -69 -1 -5 -14 -38 -27 -72
-14 -35 -23 -63 -20 -63 3 0 1 -6 -5 -13 -10 -11 -25 -64 -38 -136 -3 -13 -9
-32 -15 -43 -5 -10 -8 -18 -5 -18 3 0 0 -15 -5 -32 -5 -18 -12 -53 -15 -78 -3
-25 -8 -54 -10 -65 -29 -145 -25 -599 6 -706 5 -15 6 -29 4 -32 -3 -2 5 -44
16 -92 11 -49 22 -98 25 -109 2 -12 4 -21 6 -21 1 0 3 -9 5 -20 7 -48 78 -249
126 -356 19 -41 33 -83 32 -94 -1 -11 -5 -42 -9 -70 -4 -27 -9 -66 -11 -85 -2
-19 -6 -55 -9 -80 -15 -128 -22 -198 -27 -267 -2 -29 -5 -53 -8 -53 -3 0 -5
-19 -6 -43 -1 -44 -10 -176 -18 -262 -6 -61 -15 -183 -21 -290 -3 -44 -7 -120
-10 -170 -20 -318 -28 -698 -29 -1290 0 -567 8 -978 28 -1535 3 -74 8 -211 11
-305 3 -93 8 -226 10 -295 3 -69 7 -226 10 -350 3 -124 7 -237 9 -253 2 -15
-1 -30 -6 -33 -4 -3 -5 -10 -1 -17 3 -6 7 -72 8 -146 1 -75 5 -146 9 -159 16
-47 97 -62 159 -30 12 6 17 5 17 -7 0 -13 473 -15 4621 -15 l4621 0 29 29 c16
16 29 35 30 43 0 7 2 22 4 33 3 11 7 67 10 125 3 58 8 119 10 135 13 108 20
539 20 1170 0 651 -5 990 -20 1575 -3 96 -7 434 -10 750 -3 316 -7 613 -9 660
-3 47 -7 152 -10 234 -4 81 -9 152 -12 157 -3 5 0 9 7 9 8 0 8 4 1 13 -5 6
-10 39 -11 72 -3 71 -9 163 -15 225 -3 25 -7 84 -10 133 l-6 87 73 123 c40 67
83 145 96 172 13 28 35 71 48 97 13 27 21 48 17 48 -3 0 -2 6 4 13 14 16 103
279 97 285 -3 3 0 11 6 19 6 7 9 13 6 13 -3 0 -1 15 4 33 11 35 13 44 34 162
24 132 26 152 29 360 4 202 -5 339 -29 451 -3 12 -7 39 -11 60 -28 183 -142
480 -261 683 -123 208 -340 443 -529 573 l-51 34 18 25 c11 13 22 29 27 34 80
105 201 339 236 460 15 50 31 103 36 118 5 15 7 90 6 165 -3 112 -8 147 -25
191 -56 138 -102 202 -210 293 -53 45 -170 92 -261 106 -57 9 -201 8 -261 -1
-44 -7 -137 -31 -169 -44 -8 -4 -17 -7 -20 -8 -32 -8 -143 -76 -203 -124 -81
-65 -138 -122 -214 -217 l-48 -60 0 100 c-1 56 -4 115 -7 131 -4 17 -8 37 -10
45 -2 8 -7 21 -11 28 -5 6 -6 12 -3 12 7 0 -33 111 -47 128 -5 6 -7 12 -4 12
3 0 -14 32 -39 72 -24 40 -40 76 -36 80 10 10 154 37 165 31 4 -2 7 1 7 6 0 6
9 11 21 11 11 0 29 5 40 11 11 6 30 12 42 14 41 8 164 63 185 83 7 6 18 12 23
12 6 0 25 11 43 25 18 14 38 25 44 25 7 0 12 7 12 15 0 8 7 15 15 15 8 0 15 6
15 13 0 6 10 22 23 33 12 12 29 37 38 55 9 19 22 47 30 62 25 53 16 125 -26
212 -21 44 -45 85 -54 92 -9 6 -16 15 -16 20 0 10 -79 83 -89 83 -4 0 -14 6
-21 13 -32 28 -45 37 -53 37 -4 0 -13 5 -20 12 -6 6 -22 13 -34 15 -12 2 -25
8 -28 13 -8 13 -164 70 -190 70 -11 0 -20 4 -20 9 0 5 -12 9 -27 9 -49 1 -147
13 -178 22 -42 12 -346 11 -425 -1 -36 -6 -83 -13 -105 -15 -22 -2 -70 -10
-107 -17 l-67 -14 -6 66 c-4 36 -10 80 -15 96 -8 27 -11 74 -11 160 0 17 -7
55 -14 85 -8 30 -16 84 -19 120 -2 36 -12 93 -21 128 -9 34 -13 67 -10 72 3 6
2 10 -3 10 -5 0 -14 24 -21 53 -6 28 -14 63 -17 76 -2 13 -11 36 -20 52 -8 16
-13 32 -13 36 5 19 -65 162 -92 191 -11 12 -18 24 -17 27 6 11 -114 125 -131
125 -5 0 -11 4 -13 9 -5 14 -121 69 -216 103 -48 17 -92 35 -98 39 -6 5 -24
11 -40 13 -16 3 -48 12 -72 20 -24 9 -48 14 -53 11 -5 -4 -9 -2 -9 4 0 5 -15
13 -32 16 -18 4 -37 10 -43 13 -5 3 -28 8 -50 10 -22 2 -58 8 -80 13 -66 17
-84 19 -235 25 -79 3 -148 8 -152 10 -5 3 -14 2 -20 -3 -7 -4 -26 -9 -43 -10
-47 -4 -68 -8 -100 -22 -32 -14 -203 -8 -214 7 -3 4 -28 8 -56 10 -27 2 -70 8
-95 13 -87 19 -105 22 -142 22 -21 0 -38 4 -38 8 0 10 -133 12 -143 3z m-2487
-2782 c-1 -4 -35 -27 -78 -51 -42 -25 -79 -47 -82 -50 -3 -4 -30 -22 -60 -42
-30 -20 -99 -70 -153 -112 -54 -43 -99 -77 -101 -77 -1 0 -18 21 -36 48 -19
26 -58 73 -88 104 -64 67 -66 64 84 102 136 34 274 58 404 72 36 3 66 7 67 8
7 5 43 4 43 -2z"/>
</g>
</svg>
